<mxfile host="app.diagrams.net" modified="2023-05-12T17:49:04.822Z" agent="Mozilla/5.0 (Windows NT 10.0; Win64; x64; rv:109.0) Gecko/20100101 Firefox/112.0" etag="rLYLAJV9N9Umr1HukKoM" version="21.2.9" type="github">
  <diagram name="Page-1" id="ZU61pW85Vs68K8lzghGT">
    <mxGraphModel dx="954" dy="556" grid="1" gridSize="10" guides="1" tooltips="1" connect="1" arrows="1" fold="1" page="1" pageScale="1" pageWidth="1100" pageHeight="1700" math="0" shadow="0">
      <root>
        <mxCell id="0" />
        <mxCell id="1" parent="0" />
        <mxCell id="4tsxPiN9Ej_s7Ec1uIhf-1" value="Actor" style="shape=umlActor;verticalLabelPosition=bottom;verticalAlign=top;html=1;outlineConnect=0;" parent="1" vertex="1">
          <mxGeometry x="120" y="40" width="30" height="60" as="geometry" />
        </mxCell>
        <mxCell id="4tsxPiN9Ej_s7Ec1uIhf-2" value="server" style="html=1;whiteSpace=wrap;" parent="1" vertex="1">
          <mxGeometry x="560" y="45" width="110" height="50" as="geometry" />
        </mxCell>
        <mxCell id="4tsxPiN9Ej_s7Ec1uIhf-3" value="admin panel" style="html=1;whiteSpace=wrap;" parent="1" vertex="1">
          <mxGeometry x="320" y="45" width="110" height="50" as="geometry" />
        </mxCell>
        <mxCell id="4tsxPiN9Ej_s7Ec1uIhf-4" value="" style="endArrow=none;dashed=1;endFill=0;endSize=12;html=1;rounded=0;" parent="1" edge="1">
          <mxGeometry width="160" relative="1" as="geometry">
            <mxPoint x="134.5" y="120" as="sourcePoint" />
            <mxPoint x="135" y="1240" as="targetPoint" />
          </mxGeometry>
        </mxCell>
        <mxCell id="4tsxPiN9Ej_s7Ec1uIhf-5" value="" style="endArrow=none;dashed=1;endFill=0;endSize=12;html=1;rounded=0;" parent="1" source="4tsxPiN9Ej_s7Ec1uIhf-50" edge="1">
          <mxGeometry width="160" relative="1" as="geometry">
            <mxPoint x="374.5" y="95" as="sourcePoint" />
            <mxPoint x="375" y="1240" as="targetPoint" />
          </mxGeometry>
        </mxCell>
        <mxCell id="4tsxPiN9Ej_s7Ec1uIhf-6" value="" style="endArrow=none;dashed=1;endFill=0;endSize=12;html=1;rounded=0;" parent="1" source="4tsxPiN9Ej_s7Ec1uIhf-52" edge="1">
          <mxGeometry width="160" relative="1" as="geometry">
            <mxPoint x="614.5" y="95" as="sourcePoint" />
            <mxPoint x="615" y="1240" as="targetPoint" />
          </mxGeometry>
        </mxCell>
        <mxCell id="4tsxPiN9Ej_s7Ec1uIhf-7" value="&lt;pre&gt;&lt;code class=&quot;!whitespace-pre hljs language-rust&quot;&gt;Navigates to staff management &lt;br&gt;section&lt;/code&gt;&lt;/pre&gt;" style="text;html=1;align=center;verticalAlign=middle;resizable=0;points=[];autosize=1;strokeColor=none;fillColor=none;" parent="1" vertex="1">
          <mxGeometry x="140" y="130" width="230" height="70" as="geometry" />
        </mxCell>
        <mxCell id="4tsxPiN9Ej_s7Ec1uIhf-8" value="Database" style="html=1;whiteSpace=wrap;" parent="1" vertex="1">
          <mxGeometry x="800" y="45" width="110" height="50" as="geometry" />
        </mxCell>
        <mxCell id="4tsxPiN9Ej_s7Ec1uIhf-9" value="" style="endArrow=none;dashed=1;endFill=0;endSize=12;html=1;rounded=0;" parent="1" source="4tsxPiN9Ej_s7Ec1uIhf-54" edge="1">
          <mxGeometry width="160" relative="1" as="geometry">
            <mxPoint x="854.5" y="95" as="sourcePoint" />
            <mxPoint x="855" y="1240" as="targetPoint" />
          </mxGeometry>
        </mxCell>
        <mxCell id="4tsxPiN9Ej_s7Ec1uIhf-10" value="&lt;pre&gt;&lt;code class=&quot;!whitespace-pre hljs language-rust&quot;&gt;Show staff management page&lt;/code&gt;&lt;/pre&gt;" style="text;html=1;align=center;verticalAlign=middle;resizable=0;points=[];autosize=1;strokeColor=none;fillColor=none;" parent="1" vertex="1">
          <mxGeometry x="150" y="200" width="210" height="50" as="geometry" />
        </mxCell>
        <mxCell id="4tsxPiN9Ej_s7Ec1uIhf-11" value="&lt;pre&gt;&lt;code class=&quot;!whitespace-pre hljs language-rust&quot;&gt;Selects a staff member to manage&lt;/code&gt;&lt;/pre&gt;" style="text;html=1;align=center;verticalAlign=middle;resizable=0;points=[];autosize=1;strokeColor=none;fillColor=none;" parent="1" vertex="1">
          <mxGeometry x="130" y="260" width="250" height="50" as="geometry" />
        </mxCell>
        <mxCell id="4tsxPiN9Ej_s7Ec1uIhf-12" value="&lt;pre&gt;&lt;code class=&quot;!whitespace-pre hljs language-rust&quot;&gt;Show staff details page&lt;/code&gt;&lt;/pre&gt;" style="text;html=1;align=center;verticalAlign=middle;resizable=0;points=[];autosize=1;strokeColor=none;fillColor=none;" parent="1" vertex="1">
          <mxGeometry x="165" y="320" width="180" height="50" as="geometry" />
        </mxCell>
        <mxCell id="4tsxPiN9Ej_s7Ec1uIhf-13" value="&lt;pre&gt;&lt;code class=&quot;!whitespace-pre hljs language-rust&quot;&gt;Edits staff details&lt;/code&gt;&lt;/pre&gt;" style="text;html=1;align=center;verticalAlign=middle;resizable=0;points=[];autosize=1;strokeColor=none;fillColor=none;" parent="1" vertex="1">
          <mxGeometry x="170" y="380" width="160" height="50" as="geometry" />
        </mxCell>
        <mxCell id="4tsxPiN9Ej_s7Ec1uIhf-14" value="&lt;pre&gt;&lt;code class=&quot;!whitespace-pre hljs language-rust&quot;&gt;Sends request to update &lt;br&gt;staff details&lt;/code&gt;&lt;/pre&gt;" style="text;html=1;align=center;verticalAlign=middle;resizable=0;points=[];autosize=1;strokeColor=none;fillColor=none;" parent="1" vertex="1">
          <mxGeometry x="410" y="410" width="190" height="70" as="geometry" />
        </mxCell>
        <mxCell id="4tsxPiN9Ej_s7Ec1uIhf-15" value="&lt;pre&gt;&lt;code class=&quot;!whitespace-pre hljs language-rust&quot;&gt;Updates staff details in the &lt;br&gt;database&lt;/code&gt;&lt;/pre&gt;" style="text;html=1;align=center;verticalAlign=middle;resizable=0;points=[];autosize=1;strokeColor=none;fillColor=none;" parent="1" vertex="1">
          <mxGeometry x="620" y="468" width="230" height="70" as="geometry" />
        </mxCell>
        <mxCell id="4tsxPiN9Ej_s7Ec1uIhf-16" value="&lt;div&gt;Return status&lt;/div&gt;" style="text;html=1;align=center;verticalAlign=middle;resizable=0;points=[];autosize=1;strokeColor=none;fillColor=none;" parent="1" vertex="1">
          <mxGeometry x="680" y="550" width="100" height="30" as="geometry" />
        </mxCell>
        <mxCell id="4tsxPiN9Ej_s7Ec1uIhf-17" value="Return status" style="text;html=1;align=center;verticalAlign=middle;resizable=0;points=[];autosize=1;strokeColor=none;fillColor=none;" parent="1" vertex="1">
          <mxGeometry x="455" y="580" width="100" height="30" as="geometry" />
        </mxCell>
        <mxCell id="4tsxPiN9Ej_s7Ec1uIhf-18" value="&lt;pre&gt;&lt;code class=&quot;!whitespace-pre hljs language-rust&quot;&gt;Confirms staff details have been &lt;br&gt;updated&lt;/code&gt;&lt;/pre&gt;" style="text;html=1;align=center;verticalAlign=middle;resizable=0;points=[];autosize=1;strokeColor=none;fillColor=none;" parent="1" vertex="1">
          <mxGeometry x="130" y="620" width="250" height="70" as="geometry" />
        </mxCell>
        <mxCell id="4tsxPiN9Ej_s7Ec1uIhf-19" value="&lt;pre&gt;&lt;code class=&quot;!whitespace-pre hljs language-rust&quot;&gt;Navigates to attendance &lt;br&gt;management section&lt;/code&gt;&lt;/pre&gt;" style="text;html=1;align=center;verticalAlign=middle;resizable=0;points=[];autosize=1;strokeColor=none;fillColor=none;" parent="1" vertex="1">
          <mxGeometry x="160" y="700" width="190" height="70" as="geometry" />
        </mxCell>
        <mxCell id="4tsxPiN9Ej_s7Ec1uIhf-21" value="&lt;pre&gt;&lt;code class=&quot;!whitespace-pre hljs language-rust&quot;&gt;Show attendance management &lt;br&gt;page&lt;/code&gt;&lt;/pre&gt;" style="text;html=1;align=center;verticalAlign=middle;resizable=0;points=[];autosize=1;strokeColor=none;fillColor=none;" parent="1" vertex="1">
          <mxGeometry x="150" y="770" width="210" height="70" as="geometry" />
        </mxCell>
        <mxCell id="4tsxPiN9Ej_s7Ec1uIhf-22" value="&lt;pre&gt;&lt;code class=&quot;!whitespace-pre hljs language-rust&quot;&gt;Selects a staff member to &lt;br&gt;manage attendance&lt;/code&gt;&lt;/pre&gt;" style="text;html=1;align=center;verticalAlign=middle;resizable=0;points=[];autosize=1;strokeColor=none;fillColor=none;" parent="1" vertex="1">
          <mxGeometry x="155" y="828" width="210" height="70" as="geometry" />
        </mxCell>
        <mxCell id="4tsxPiN9Ej_s7Ec1uIhf-23" value="&lt;pre&gt;&lt;code class=&quot;!whitespace-pre hljs language-rust&quot;&gt;Show attendance details page&lt;/code&gt;&lt;/pre&gt;" style="text;html=1;align=center;verticalAlign=middle;resizable=0;points=[];autosize=1;strokeColor=none;fillColor=none;" parent="1" vertex="1">
          <mxGeometry x="145" y="898" width="220" height="50" as="geometry" />
        </mxCell>
        <mxCell id="4tsxPiN9Ej_s7Ec1uIhf-24" value="&lt;pre&gt;&lt;code class=&quot;!whitespace-pre hljs language-rust&quot;&gt;Edits attendance details&lt;/code&gt;&lt;/pre&gt;" style="text;html=1;align=center;verticalAlign=middle;resizable=0;points=[];autosize=1;strokeColor=none;fillColor=none;" parent="1" vertex="1">
          <mxGeometry x="160" y="950" width="190" height="50" as="geometry" />
        </mxCell>
        <mxCell id="4tsxPiN9Ej_s7Ec1uIhf-25" value="&lt;pre&gt;&lt;code class=&quot;!whitespace-pre hljs language-rust&quot;&gt;Sends request to update &lt;br&gt;attendance details&lt;/code&gt;&lt;/pre&gt;" style="text;html=1;align=center;verticalAlign=middle;resizable=0;points=[];autosize=1;strokeColor=none;fillColor=none;" parent="1" vertex="1">
          <mxGeometry x="410" y="988" width="190" height="70" as="geometry" />
        </mxCell>
        <mxCell id="4tsxPiN9Ej_s7Ec1uIhf-26" value="&lt;pre&gt;&lt;code class=&quot;!whitespace-pre hljs language-rust&quot;&gt;Updates attendance details in &lt;br&gt;the database&lt;/code&gt;&lt;/pre&gt;" style="text;html=1;align=center;verticalAlign=middle;resizable=0;points=[];autosize=1;strokeColor=none;fillColor=none;" parent="1" vertex="1">
          <mxGeometry x="620" y="1030" width="230" height="70" as="geometry" />
        </mxCell>
        <mxCell id="4tsxPiN9Ej_s7Ec1uIhf-27" value="&lt;pre&gt;&lt;code class=&quot;!whitespace-pre hljs language-rust&quot;&gt;Confirms attendance details have &lt;br&gt;been updated&lt;/code&gt;&lt;/pre&gt;" style="text;html=1;align=center;verticalAlign=middle;resizable=0;points=[];autosize=1;strokeColor=none;fillColor=none;" parent="1" vertex="1">
          <mxGeometry x="135" y="1160" width="250" height="70" as="geometry" />
        </mxCell>
        <mxCell id="4tsxPiN9Ej_s7Ec1uIhf-28" value="Return status" style="text;html=1;align=center;verticalAlign=middle;resizable=0;points=[];autosize=1;strokeColor=none;fillColor=none;" parent="1" vertex="1">
          <mxGeometry x="680" y="1110" width="100" height="30" as="geometry" />
        </mxCell>
        <mxCell id="4tsxPiN9Ej_s7Ec1uIhf-29" value="Return status" style="text;html=1;align=center;verticalAlign=middle;resizable=0;points=[];autosize=1;strokeColor=none;fillColor=none;" parent="1" vertex="1">
          <mxGeometry x="455" y="1140" width="100" height="30" as="geometry" />
        </mxCell>
        <mxCell id="4tsxPiN9Ej_s7Ec1uIhf-30" value="" style="endArrow=block;endFill=0;endSize=12;html=1;rounded=0;entryX=1.009;entryY=0.7;entryDx=0;entryDy=0;entryPerimeter=0;" parent="1" target="4tsxPiN9Ej_s7Ec1uIhf-7" edge="1">
          <mxGeometry width="160" relative="1" as="geometry">
            <mxPoint x="140" y="180" as="sourcePoint" />
            <mxPoint x="300" y="180" as="targetPoint" />
          </mxGeometry>
        </mxCell>
        <mxCell id="4tsxPiN9Ej_s7Ec1uIhf-31" value="" style="endArrow=block;endFill=0;endSize=12;html=1;rounded=0;entryX=1.009;entryY=0.7;entryDx=0;entryDy=0;entryPerimeter=0;" parent="1" edge="1">
          <mxGeometry width="160" relative="1" as="geometry">
            <mxPoint x="371" y="240" as="sourcePoint" />
            <mxPoint x="139" y="241" as="targetPoint" />
          </mxGeometry>
        </mxCell>
        <mxCell id="4tsxPiN9Ej_s7Ec1uIhf-32" value="" style="endArrow=block;endFill=0;endSize=12;html=1;rounded=0;entryX=1.009;entryY=0.7;entryDx=0;entryDy=0;entryPerimeter=0;" parent="1" edge="1">
          <mxGeometry width="160" relative="1" as="geometry">
            <mxPoint x="140" y="301" as="sourcePoint" />
            <mxPoint x="372" y="300" as="targetPoint" />
          </mxGeometry>
        </mxCell>
        <mxCell id="4tsxPiN9Ej_s7Ec1uIhf-33" value="" style="endArrow=block;endFill=0;endSize=12;html=1;rounded=0;entryX=1.009;entryY=0.7;entryDx=0;entryDy=0;entryPerimeter=0;" parent="1" edge="1">
          <mxGeometry width="160" relative="1" as="geometry">
            <mxPoint x="370" y="360" as="sourcePoint" />
            <mxPoint x="138" y="361" as="targetPoint" />
          </mxGeometry>
        </mxCell>
        <mxCell id="4tsxPiN9Ej_s7Ec1uIhf-34" value="" style="endArrow=block;endFill=0;endSize=12;html=1;rounded=0;entryX=1.009;entryY=0.7;entryDx=0;entryDy=0;entryPerimeter=0;" parent="1" edge="1">
          <mxGeometry width="160" relative="1" as="geometry">
            <mxPoint x="140" y="421" as="sourcePoint" />
            <mxPoint x="372" y="420" as="targetPoint" />
          </mxGeometry>
        </mxCell>
        <mxCell id="4tsxPiN9Ej_s7Ec1uIhf-35" value="" style="endArrow=block;endFill=0;endSize=12;html=1;rounded=0;entryX=1.009;entryY=0.7;entryDx=0;entryDy=0;entryPerimeter=0;" parent="1" edge="1">
          <mxGeometry width="160" relative="1" as="geometry">
            <mxPoint x="380" y="468" as="sourcePoint" />
            <mxPoint x="612" y="467" as="targetPoint" />
          </mxGeometry>
        </mxCell>
        <mxCell id="4tsxPiN9Ej_s7Ec1uIhf-36" value="" style="endArrow=block;endFill=0;endSize=12;html=1;rounded=0;entryX=1.009;entryY=0.7;entryDx=0;entryDy=0;entryPerimeter=0;" parent="1" edge="1">
          <mxGeometry width="160" relative="1" as="geometry">
            <mxPoint x="618" y="521" as="sourcePoint" />
            <mxPoint x="850" y="520" as="targetPoint" />
          </mxGeometry>
        </mxCell>
        <mxCell id="4tsxPiN9Ej_s7Ec1uIhf-37" value="" style="endArrow=block;endFill=0;endSize=12;html=1;rounded=0;entryX=1.009;entryY=0.7;entryDx=0;entryDy=0;entryPerimeter=0;" parent="1" edge="1">
          <mxGeometry width="160" relative="1" as="geometry">
            <mxPoint x="852" y="580" as="sourcePoint" />
            <mxPoint x="620" y="581" as="targetPoint" />
          </mxGeometry>
        </mxCell>
        <mxCell id="4tsxPiN9Ej_s7Ec1uIhf-38" value="" style="endArrow=block;endFill=0;endSize=12;html=1;rounded=0;entryX=1.009;entryY=0.7;entryDx=0;entryDy=0;entryPerimeter=0;" parent="1" edge="1">
          <mxGeometry width="160" relative="1" as="geometry">
            <mxPoint x="612" y="610" as="sourcePoint" />
            <mxPoint x="380" y="611" as="targetPoint" />
          </mxGeometry>
        </mxCell>
        <mxCell id="4tsxPiN9Ej_s7Ec1uIhf-39" value="" style="endArrow=block;endFill=0;endSize=12;html=1;rounded=0;entryX=1.009;entryY=0.7;entryDx=0;entryDy=0;entryPerimeter=0;" parent="1" edge="1">
          <mxGeometry width="160" relative="1" as="geometry">
            <mxPoint x="370" y="670" as="sourcePoint" />
            <mxPoint x="138" y="671" as="targetPoint" />
          </mxGeometry>
        </mxCell>
        <mxCell id="4tsxPiN9Ej_s7Ec1uIhf-40" value="" style="endArrow=block;endFill=0;endSize=12;html=1;rounded=0;entryX=1.009;entryY=0.7;entryDx=0;entryDy=0;entryPerimeter=0;" parent="1" edge="1">
          <mxGeometry width="160" relative="1" as="geometry">
            <mxPoint x="138" y="751" as="sourcePoint" />
            <mxPoint x="370" y="750" as="targetPoint" />
          </mxGeometry>
        </mxCell>
        <mxCell id="4tsxPiN9Ej_s7Ec1uIhf-41" value="" style="endArrow=block;endFill=0;endSize=12;html=1;rounded=0;entryX=1.009;entryY=0.7;entryDx=0;entryDy=0;entryPerimeter=0;" parent="1" edge="1">
          <mxGeometry width="160" relative="1" as="geometry">
            <mxPoint x="370" y="820" as="sourcePoint" />
            <mxPoint x="138" y="821" as="targetPoint" />
          </mxGeometry>
        </mxCell>
        <mxCell id="4tsxPiN9Ej_s7Ec1uIhf-42" value="" style="endArrow=block;endFill=0;endSize=12;html=1;rounded=0;entryX=1.009;entryY=0.7;entryDx=0;entryDy=0;entryPerimeter=0;" parent="1" edge="1">
          <mxGeometry width="160" relative="1" as="geometry">
            <mxPoint x="140" y="881" as="sourcePoint" />
            <mxPoint x="372" y="880" as="targetPoint" />
          </mxGeometry>
        </mxCell>
        <mxCell id="4tsxPiN9Ej_s7Ec1uIhf-43" value="" style="endArrow=block;endFill=0;endSize=12;html=1;rounded=0;entryX=1.009;entryY=0.7;entryDx=0;entryDy=0;entryPerimeter=0;" parent="1" edge="1">
          <mxGeometry width="160" relative="1" as="geometry">
            <mxPoint x="370" y="940" as="sourcePoint" />
            <mxPoint x="138" y="941" as="targetPoint" />
          </mxGeometry>
        </mxCell>
        <mxCell id="4tsxPiN9Ej_s7Ec1uIhf-44" value="" style="endArrow=block;endFill=0;endSize=12;html=1;rounded=0;entryX=1.009;entryY=0.7;entryDx=0;entryDy=0;entryPerimeter=0;" parent="1" edge="1">
          <mxGeometry width="160" relative="1" as="geometry">
            <mxPoint x="140" y="989" as="sourcePoint" />
            <mxPoint x="372" y="988" as="targetPoint" />
          </mxGeometry>
        </mxCell>
        <mxCell id="4tsxPiN9Ej_s7Ec1uIhf-45" value="" style="endArrow=block;endFill=0;endSize=12;html=1;rounded=0;entryX=1.009;entryY=0.7;entryDx=0;entryDy=0;entryPerimeter=0;" parent="1" edge="1">
          <mxGeometry width="160" relative="1" as="geometry">
            <mxPoint x="380" y="1041" as="sourcePoint" />
            <mxPoint x="612" y="1040" as="targetPoint" />
          </mxGeometry>
        </mxCell>
        <mxCell id="4tsxPiN9Ej_s7Ec1uIhf-46" value="" style="endArrow=block;endFill=0;endSize=12;html=1;rounded=0;entryX=1.009;entryY=0.7;entryDx=0;entryDy=0;entryPerimeter=0;" parent="1" edge="1">
          <mxGeometry width="160" relative="1" as="geometry">
            <mxPoint x="620" y="1081" as="sourcePoint" />
            <mxPoint x="852" y="1080" as="targetPoint" />
          </mxGeometry>
        </mxCell>
        <mxCell id="4tsxPiN9Ej_s7Ec1uIhf-47" value="" style="endArrow=block;endFill=0;endSize=12;html=1;rounded=0;entryX=1.009;entryY=0.7;entryDx=0;entryDy=0;entryPerimeter=0;" parent="1" edge="1">
          <mxGeometry width="160" relative="1" as="geometry">
            <mxPoint x="852" y="1140" as="sourcePoint" />
            <mxPoint x="620" y="1141" as="targetPoint" />
          </mxGeometry>
        </mxCell>
        <mxCell id="4tsxPiN9Ej_s7Ec1uIhf-48" value="" style="endArrow=block;endFill=0;endSize=12;html=1;rounded=0;entryX=1.009;entryY=0.7;entryDx=0;entryDy=0;entryPerimeter=0;" parent="1" edge="1">
          <mxGeometry width="160" relative="1" as="geometry">
            <mxPoint x="612" y="1170" as="sourcePoint" />
            <mxPoint x="380" y="1171" as="targetPoint" />
          </mxGeometry>
        </mxCell>
        <mxCell id="4tsxPiN9Ej_s7Ec1uIhf-49" value="" style="endArrow=block;endFill=0;endSize=12;html=1;rounded=0;entryX=1.009;entryY=0.7;entryDx=0;entryDy=0;entryPerimeter=0;" parent="1" edge="1">
          <mxGeometry width="160" relative="1" as="geometry">
            <mxPoint x="370" y="1210" as="sourcePoint" />
            <mxPoint x="138" y="1211" as="targetPoint" />
          </mxGeometry>
        </mxCell>
        <mxCell id="4tsxPiN9Ej_s7Ec1uIhf-51" value="" style="endArrow=block;dashed=1;endFill=0;endSize=12;html=1;rounded=0;" parent="1" target="4tsxPiN9Ej_s7Ec1uIhf-50" edge="1">
          <mxGeometry width="160" relative="1" as="geometry">
            <mxPoint x="374.5" y="95" as="sourcePoint" />
            <mxPoint x="375" y="1240" as="targetPoint" />
          </mxGeometry>
        </mxCell>
        <mxCell id="4tsxPiN9Ej_s7Ec1uIhf-50" value="" style="html=1;points=[];perimeter=orthogonalPerimeter;outlineConnect=0;targetShapes=umlLifeline;portConstraint=eastwest;newEdgeStyle={&quot;edgeStyle&quot;:&quot;elbowEdgeStyle&quot;,&quot;elbow&quot;:&quot;vertical&quot;,&quot;curved&quot;:0,&quot;rounded&quot;:0};" parent="1" vertex="1">
          <mxGeometry x="370" y="160" width="10" height="1060" as="geometry" />
        </mxCell>
        <mxCell id="4tsxPiN9Ej_s7Ec1uIhf-53" value="" style="endArrow=block;dashed=1;endFill=0;endSize=12;html=1;rounded=0;" parent="1" target="4tsxPiN9Ej_s7Ec1uIhf-52" edge="1">
          <mxGeometry width="160" relative="1" as="geometry">
            <mxPoint x="614.5" y="95" as="sourcePoint" />
            <mxPoint x="615" y="1240" as="targetPoint" />
          </mxGeometry>
        </mxCell>
        <mxCell id="4tsxPiN9Ej_s7Ec1uIhf-52" value="" style="html=1;points=[];perimeter=orthogonalPerimeter;outlineConnect=0;targetShapes=umlLifeline;portConstraint=eastwest;newEdgeStyle={&quot;edgeStyle&quot;:&quot;elbowEdgeStyle&quot;,&quot;elbow&quot;:&quot;vertical&quot;,&quot;curved&quot;:0,&quot;rounded&quot;:0};" parent="1" vertex="1">
          <mxGeometry x="610" y="450" width="10" height="730" as="geometry" />
        </mxCell>
        <mxCell id="4tsxPiN9Ej_s7Ec1uIhf-55" value="" style="endArrow=block;dashed=1;endFill=0;endSize=12;html=1;rounded=0;" parent="1" target="4tsxPiN9Ej_s7Ec1uIhf-54" edge="1">
          <mxGeometry width="160" relative="1" as="geometry">
            <mxPoint x="854.5" y="95" as="sourcePoint" />
            <mxPoint x="855" y="1240" as="targetPoint" />
          </mxGeometry>
        </mxCell>
        <mxCell id="4tsxPiN9Ej_s7Ec1uIhf-54" value="" style="html=1;points=[];perimeter=orthogonalPerimeter;outlineConnect=0;targetShapes=umlLifeline;portConstraint=eastwest;newEdgeStyle={&quot;edgeStyle&quot;:&quot;elbowEdgeStyle&quot;,&quot;elbow&quot;:&quot;vertical&quot;,&quot;curved&quot;:0,&quot;rounded&quot;:0};" parent="1" vertex="1">
          <mxGeometry x="850" y="500" width="10" height="650" as="geometry" />
        </mxCell>
      </root>
    </mxGraphModel>
  </diagram>
</mxfile>
